<?xml version="1.0" encoding="utf-8"?>
<!-- Generator: Adobe Illustrator 25.4.1, SVG Export Plug-In . SVG Version: 6.00 Build 0)  -->
<svg version="1.1" xmlns="http://www.w3.org/2000/svg" xmlns:xlink="http://www.w3.org/1999/xlink" x="0px" y="0px"
	 viewBox="110 360 640 130" xml:space="preserve">
<style type="text/css">
	.st0{fill:#E91A24;}
	.st1{fill:#FFFFFF;}
	.st2{fill:#FFFFFF;}
	.st3{fill:#FFFFFF;}
	.st4{fill:none;stroke:#FFFFFF;stroke-miterlimit:10;}
	.st5{fill:none;stroke:#000000;stroke-miterlimit:10;}
	.st6{fill:none;}
</style>
<g id="Layer_1">
</g>
<g id="Logo">
	<g>
		<path class="st0" d="M198.3,376.5l-0.3,1.7l-2.3,12.9l-0.3,1.8h-39.9c-0.4,0-0.8,0.3-0.9,0.7l-1.2,6.6c-0.1,0.4,0.2,0.7,0.6,0.7
			h32.5l-0.4,2.1l-2,11.2l-0.4,2.2h-32.5c-0.4,0-0.8,0.3-0.9,0.7l-1.1,6.2c-0.1,0.4,0.2,0.7,0.6,0.7h39.9l-0.4,2.1l-2.3,12.6
			l-0.4,2.2h-60.1l0.6-3.6l10.4-57.4l0.6-3.5H198.3z"/>
		<g>
			<path class="st2" d="M544.6,473.7l3.5-17.7h-6.9l0.8-4.1h19l-0.8,4.1h-6.9l-3.5,17.7H544.6z"/>
			<path class="st2" d="M579.3,473.7l4.4-21.8h5l-4.4,21.8H579.3z"/>
			<path class="st2" d="M609.4,473.7l4.4-21.8h8.9c2.7,0,4.8,0.6,6.3,1.8c1.5,1.2,2.2,2.8,2.2,4.9c0,1.8-0.4,3.4-1.3,4.8
				c-0.9,1.3-2.1,2.4-3.7,3.1c-1.6,0.7-3.5,1.1-5.6,1.1h-7.1l2.6-2.2l-1.7,8.3H609.4z M616,466l-1.7-2.4h6.5c1.7,0,3-0.4,3.9-1.1
				c0.9-0.8,1.4-1.9,1.4-3.3c0-1.1-0.4-1.9-1.1-2.4c-0.7-0.5-1.7-0.8-3-0.8h-6.1l2.6-2.5L616,466z M623.5,473.7l-4.5-7.9h5.3
				l4.5,7.9H623.5z"/>
			<path class="st2" d="M658.1,469.6H670l-0.8,4h-16.9l4.4-21.8h16.4l-0.8,4h-11.5L658.1,469.6z M659.5,460.6H670l-0.8,4h-10.5
				L659.5,460.6z"/>
			<path class="st2" d="M700.7,474c-1.2,0-2.3-0.1-3.5-0.3c-1.1-0.2-2.1-0.5-3-0.9c-0.9-0.4-1.7-0.8-2.3-1.2l2-3.9
				c0.7,0.5,1.4,0.9,2.2,1.2c0.8,0.3,1.6,0.6,2.4,0.8c0.8,0.2,1.7,0.3,2.6,0.3c0.9,0,1.7-0.1,2.4-0.3c0.7-0.2,1.2-0.5,1.5-0.9
				c0.4-0.4,0.5-0.8,0.5-1.4c0-0.5-0.2-0.9-0.6-1.2c-0.4-0.3-0.9-0.6-1.5-0.8c-0.6-0.2-1.3-0.4-2.1-0.6c-0.8-0.2-1.6-0.5-2.3-0.7
				c-0.8-0.3-1.5-0.6-2.1-1.1c-0.6-0.4-1.2-1-1.5-1.6c-0.4-0.7-0.6-1.5-0.6-2.5c0-1.5,0.4-2.8,1.2-3.9c0.8-1.1,2-2,3.5-2.6
				c1.5-0.6,3.2-0.9,5.3-0.9c1.5,0,2.9,0.2,4.2,0.5c1.3,0.3,2.4,0.8,3.4,1.4l-1.9,3.9c-0.8-0.5-1.8-1-2.8-1.2
				c-1-0.3-2.1-0.4-3.1-0.4c-1,0-1.8,0.1-2.5,0.3c-0.7,0.2-1.2,0.5-1.6,0.9c-0.4,0.4-0.6,0.9-0.6,1.4c0,0.5,0.2,0.9,0.6,1.2
				c0.4,0.3,0.9,0.6,1.6,0.8c0.6,0.2,1.3,0.4,2.1,0.7c0.8,0.2,1.5,0.5,2.3,0.7c0.8,0.3,1.5,0.6,2.1,1c0.6,0.4,1.2,0.9,1.6,1.6
				c0.4,0.6,0.6,1.4,0.6,2.4c0,1.5-0.4,2.8-1.2,3.9c-0.8,1.1-2,2-3.5,2.6C704.5,473.7,702.8,474,700.7,474z"/>
		</g>
		<path class="st2" d="M643.1,376.5h-49.6l-0.6,3.5l-10.4,57.4l-0.6,3.5h19.4l0.6-3.5l1.4-7.7l0.8-4.3c0.1-0.4,0.5-0.7,0.9-0.7
			l14.7,0c0.7,0,1.3,0.4,1.6,1l4.1,8.1l2.9,5.6l0.8,1.6h23.3l-2.3-4.1l-1.3-2.3l-6.3-10.9c-0.2-0.4,0-0.8,0.4-1
			c5.8-2.8,10.5-8.4,11.6-14.7l2.6-14.7C658.9,384,652.6,376.5,643.1,376.5z M637.2,395.8l-1.7,9.6c-0.3,1.8-2,3.2-3.8,3.2h-23.8
			c-0.4,0-0.7-0.3-0.6-0.7l2.6-14.6c0.1-0.4,0.5-0.7,0.9-0.7h23.8C636.3,392.6,637.5,394.1,637.2,395.8z"/>
		<path class="st0" d="M429,376.5l-2.1,9.7l-0.9,4.2l-0.6,2.6h-21.2c-0.4,0-0.8,0.3-0.9,0.7l-4.5,25l-3.4,18.8l-0.6,3.6h-19.4
			l0.6-3.5l3.4-18.8l4.5-25c0.1-0.4-0.2-0.7-0.6-0.7h-21.4l0.6-3.6l1.7-9.3l0.7-3.6H429z"/>
		<path class="st0" d="M272.1,436.5L253.6,380l-1.1-3.5h-17.7l-2.3,3.5L195,436.8l-2.8,4.2h22.3l1.1-1.6l2.5-3.5l1.3-1.9h31.1
			l0.1,0.5l1.5,4.9l0.5,1.6h20.9L272.1,436.5z M229.4,418.7l11-16.8l5.3,16.8H229.4z"/>
		<path d="M468.8,424.1c-0.1,0-0.2,0-0.3,0s-0.2,0-0.3,0H468.8z"/>
		<path class="st0" d="M352.3,386.3c0,0.5,0,1-0.1,1.4c0,0,0,0,0,0c0,0,0,0.1,0,0.1c0,0.1,0,0.3-0.1,0.4c0,0,0,0,0,0l-0.2,1.1
			l-0.6,3.5l-0.9,5.1h-19.4l0.9-5.1h-23.5c-1.2,0-2.4,1-2.6,2.1l-0.4,1.5c-0.2,1.2,0.6,2.1,1.8,2.1l28.4,4c9.7,1,15.7,7.5,14.1,16.8
			l-0.7,4.6c-1.7,9.3-10.7,16.8-20.1,16.8h-1.9v0h-34.6c-5.2-0.2-9.4-4.5-9.4-9.7c0-0.5,0-0.9,0.1-1.4l0.1-0.6l0.3-1.5l0.6-3.6
			l0.9-5.1h19.4l-0.9,5.1h24.6c1.2,0,2.4-1,2.6-2.2l0.2-1.6c0.2-1.2-0.6-2.1-1.8-2.1l-28.4-4c-9.2-1.4-15.7-7.5-14.1-16.8l0.8-4
			c1.7-9.3,10.7-16.8,20.1-16.8h35C347.9,376.6,352.3,380.9,352.3,386.3z"/>
		<path class="st2" d="M720.2,376.3h-46.8l-0.6,3.6l-9.9,54.6l-0.5,2.6l-0.1,0.4l-0.6,3.4h4.2l0,0h42.6c9.4,0,18.5-7.5,20.1-16.8
			l5.6-31C736,383.9,729.7,376.3,720.2,376.3z M714.4,395.1l-4.8,26.8c-0.2,1.2-1.4,2.1-2.6,2.1h-20.5c-1.2,0-2-1-1.8-2.1l4.8-26.8
			c0.2-1.2,1.4-2.1,2.6-2.1h20.5C713.8,393,714.6,393.9,714.4,395.1z"/>
		<path class="st2" d="M126.8,458.7h23.1l-10.9,10.4h-23.1L126.8,458.7z M150.8,469.1h23.1l10.9-10.4h-23.1L150.8,469.1z
			 M185.8,469.1h23.1l10.9-10.4h-23.1L185.8,469.1z M220.8,469.1h23.1l10.9-10.4h-23.1L220.8,469.1z M255.7,469.1h23.1l10.9-10.4
			h-23.1L255.7,469.1z M521.3,463.9l-208.8-5.2v0h-10.9l-10.9,10.4h21.8v0L521.3,463.9z"/>
		<path class="st2" d="M496.4,386.2c0,0.5,0,0.9-0.1,1.4l-0.1,0.7c0,0,0,0,0,0l-0.2,1.2l-1.5,8.5H475l0.4-2.5c0-0.1,0-0.1,0-0.2
			c0-0.1,0-0.2,0-0.3c0-1.1-0.9-2-2-2H456c-1.2,0-2.4,1-2.6,2.1l-4.9,26.7c-0.2,1.2,0.6,2.1,1.8,2.1h17.9c0.1,0,0.2,0,0.3,0
			s0.2,0,0.3,0c0.9-0.1,1.6-0.7,1.8-1.6c0-0.1,0-0.2,0.1-0.3c0,0,0,0,0,0l0.4-2.3l0.2-0.9h19.4l-1.6,8.6l-0.6,3.4l-0.2,1.1
			c-1.2,5.1-5.7,8.8-11.1,8.8h-34.5c-9.5,0-15.7-7.5-14.1-16.8l5.7-31c1.6-8.8,9.8-16,18.7-16.7h33.8
			C492.1,376.5,496.4,380.9,496.4,386.2z"/>
		<path d="M468.8,424.1c-0.1,0-0.2,0-0.3,0s-0.2,0-0.3,0H468.8z"/>
		<g>
			<path class="st0" d="M554.6,407.6c-0.3,0.6-0.2,0.8,0.3,1c0.1,0,0.2,0.1,0.2,0.1c0.3,0.2,0.7,0.3,1,0.5c0.4,0.2,0.4,0.2-0.1,0.6
				c-0.4,0.3-0.9,0.6-1.3,0.9c-2.7,1.9-5.5,3.9-8.2,5.8c-0.5,0.3-0.6,0.6-0.5,1.1c0.2,0.9,0.3,1.8,0.5,2.8c-0.2,0-0.4-0.1-0.5-0.1
				c-2.4-0.4-4.7-0.9-7.1-1.3c-0.2,0-0.4,0-0.5,0c-0.6,0.1-0.9,0.4-1,1.2c-0.2,1.3-0.3,2.6-0.5,3.9c-0.1,0.9-0.2,1.8-0.4,2.7
				c-0.2,1.1-0.2,1.3-1,1.3c-0.9,0-0.8-0.1-0.6-1.3c0.2-0.9,0.4-1.8,0.6-2.7c0.3-1.3,0.6-2.6,0.9-3.9c0.2-0.8,0-1.2-0.6-1.2
				c-0.1,0-0.3,0-0.5,0c-2.5,0.4-5,0.9-7.6,1.3c-0.1,0-0.3,0-0.5,0.1c0.5-1,1-1.9,1.5-2.8c0.3-0.5,0.2-0.8-0.1-1.1
				c-2.1-2-4.2-3.9-6.2-5.9c-0.3-0.3-0.6-0.5-0.8-0.8c-0.4-0.3-0.4-0.4,0.2-0.6c0.3-0.1,0.7-0.3,1-0.4c0.2-0.1,0.3-0.1,0.5-0.2
				c0.6-0.3,0.7-0.5,0.6-1c-0.1-0.9-0.2-1.8-0.4-2.7c-0.1-0.7-0.2-1.3-0.3-2c0-0.2,0-0.3-0.1-0.6c0.3,0.1,0.5,0.1,0.8,0.2
				c0.4,0.1,0.8,0.2,1.2,0.3c0.9,0.2,1.8,0.4,2.7,0.6c0.5,0.1,0.8,0,1.1-0.5c0.3-0.6,0.7-1.2,1-1.7c0.2-0.4,0.3-0.4,0.5-0.1
				c0.9,1.2,1.8,2.4,2.7,3.6c0.1,0.1,0.1,0.2,0.2,0.3c0.2,0.2,0.4,0.4,0.8,0.2c0.4-0.2,0.5-0.4,0.5-0.8c0-1.5,0-3.1-0.1-4.6
				c0-1.6,0-3.2-0.1-4.8c0-0.1,0-0.3,0-0.5c0.7,0.5,1.4,0.9,2.1,1.4c1.1,0.7,1.1,0.7,2-0.6c0.5-0.8,1.1-1.6,1.6-2.3
				c0.1-0.1,0.2-0.3,0.3-0.4c0.5-0.8,1.1-1.5,1.6-2.3c0.1-0.1,0.1-0.2,0.3-0.4c0.1,0.2,0.1,0.3,0.1,0.4c0.2,0.6,0.4,1.3,0.6,1.9
				c0.1,0.3,0.2,0.6,0.3,0.9c0.3,0.8,0.5,1.6,0.8,2.3c0.4,1.3,0.4,1.3,1.8,0.6c0.8-0.4,1.7-0.9,2.6-1.4c-0.1,0.2-0.1,0.4-0.2,0.5
				c-0.6,1.6-1.2,3.2-1.8,4.8c-0.6,1.5-1.1,3.1-1.7,4.6c-0.1,0.4-0.1,0.6,0.2,0.8c0.3,0.2,0.6,0,0.8-0.2c0.1-0.1,0.2-0.2,0.3-0.3
				c1.4-1.2,2.7-2.4,4-3.6c0.3-0.3,0.4-0.3,0.5,0.1c0.1,0.6,0.3,1.2,0.4,1.7c0.1,0.5,0.4,0.6,0.9,0.5c1-0.2,2-0.4,3-0.6
				c0.4-0.1,0.7-0.1,1.1-0.2c0.3-0.1,0.7-0.1,1-0.2c-0.1,0.2-0.2,0.4-0.3,0.6c-0.4,0.8-0.9,1.7-1.3,2.5
				C555.4,406.2,555,406.9,554.6,407.6z"/>
		</g>
		<g>
			<path class="st2" d="M577.5,393.2l-5.6,31c-1.7,9.3-10.7,16.8-20.1,16.8h-17.1l1.9-10.8h1.5l0.4-2.9c0.1-1,0.3-2.1,0.4-3.2h11.2
				c1.2,0,2.4-1,2.6-2.1l1.5-8.3c0.2-0.2,0.5-0.3,0.7-0.5l2-1.4l0.6-0.5l2.8-2l-3.1-1.7c0,0-0.1,0-0.1-0.1l-0.2-0.1
				c0.3-0.6,1.8-3.5,1.8-3.5c0.1-0.1,0.1-0.2,0.2-0.4l2-4.1l-4.4,0.9l0.9-5.2c0.2-1.2-0.6-2.1-1.8-2.1h-10.2
				c-0.4-1.2-1.1-3.2-1.1-3.2c0-0.1-0.1-0.2-0.1-0.3l-0.3-0.9l2.2-12.2h17.1C572.9,376.3,579.2,383.9,577.5,393.2z"/>
			<path class="st2" d="M543.3,376.3l-2.1,11.8c-0.8,1.1-2.6,3.7-3.4,4.9h-9.9c-1.2,0-2.4,1-2.6,2.1l-1,5.4c-0.1,0-0.2,0-0.3-0.1
				l-3.2-0.7l0.4,2.9c0,0.1,0,0.3,0,0.4c0,0,0.5,3.2,0.6,3.9c0,0-0.1,0.1-0.3,0.1l-0.1,0l-0.1,0.1l-0.1,0.1l-0.2,0.1l-0.1,0
				l-0.2,0.1l-3,1.3l2.5,2.4l0.9,0.9l0.9,0.8c0,0,0.1,0.1,0.1,0.1l-1.6,9c-0.2,1.2,0.6,2.1,1.8,2.1h11.2c-0.1,0.2-0.1,0.4-0.1,0.6
				c-0.1,0.5-0.2,1-0.4,1.5c0,0.1,0,0.1,0,0.2l-0.9,3.7h1.6l-1.9,10.8h-17.1c-9.5,0-15.8-7.5-14.1-16.8l5.6-31
				c1.7-9.3,10.7-16.8,20.1-16.8H543.3z"/>
		</g>
		<g>
		</g>
		<g>
			<line class="st6" x1="543.3" y1="376.4" x2="541.2" y2="388.1"/>
			<line class="st6" x1="533.6" y1="430.2" x2="531.6" y2="441"/>
			<line class="st6" x1="546.3" y1="376.4" x2="544.1" y2="388.5"/>
			<line class="st6" x1="536.6" y1="430.2" x2="534.7" y2="441"/>
		</g>
	</g>
</g>
</svg>
